<?xml version="1.0" encoding="utf-8"?>
<!-- Generator: Adobe Illustrator 24.3.0, SVG Export Plug-In . SVG Version: 6.00 Build 0)  -->
<svg version="1.1" id="logo-87" xmlns="http://www.w3.org/2000/svg" xmlns:xlink="http://www.w3.org/1999/xlink" x="0px" y="0px"
	 viewBox="0 0 202 40" style="enable-background:new 0 0 202 40;" xml:space="preserve">
<style type="text/css">
	.st0{fill-rule:evenodd;clip-rule:evenodd;fill:#007DFC;}
	.st1{enable-background:new    ;}
	.st2{fill:#007DFC;}
</style>
<path class="st0" d="M25.6,11.7C23.9,10.6,22,10,20,10V0c4,0,7.8,1.2,11.1,3.4s5.9,5.3,7.4,9C40,16,40.4,20,39.6,23.9
	c-0.8,3.9-2.7,7.4-5.5,10.2s-6.4,4.7-10.2,5.5C20,40.4,16,40,12.3,38.5s-6.8-4.1-9-7.4C1.2,27.8,0,24,0,20h10c0,2,0.6,3.9,1.7,5.6
	c1.1,1.6,2.7,2.9,4.5,3.7c1.8,0.8,3.8,1,5.8,0.6c1.9-0.4,3.7-1.3,5.1-2.7c1.4-1.4,2.4-3.2,2.7-5.1c0.4-1.9,0.2-4-0.6-5.8
	C28.5,14.3,27.2,12.8,25.6,11.7z"/>
<path class="st0" d="M10,0c0,1.3-0.3,2.6-0.8,3.8S8,6.1,7.1,7.1C6.1,8,5,8.7,3.8,9.2S1.3,10,0,10v10c2.6,0,5.2-0.5,7.7-1.5
	s4.6-2.5,6.5-4.3c1.9-1.9,3.3-4.1,4.3-6.5S20,2.7,20,0H10z"/>
<g class="st1">
	<path class="st2" d="M51.1,8h6.5l5.5,13.5h0.3L68.9,8h6.5v21.8h-5.1V16.5h-0.2l-5.2,13.3h-3.3l-5.2-13.3h-0.2v13.5h-5.1V8z"/>
	<path class="st2" d="M86.4,30.2c-1.7,0-3.2-0.3-4.4-1c-1.2-0.7-2.2-1.6-2.9-2.9c-0.7-1.3-1-2.8-1-4.5c0-1.7,0.3-3.2,1-4.4
		c0.7-1.3,1.6-2.3,2.8-3c1.2-0.7,2.6-1.1,4.3-1.1c1.2,0,2.2,0.2,3.2,0.5s1.8,0.9,2.5,1.6s1.2,1.6,1.6,2.6c0.4,1,0.6,2.2,0.6,3.6v1.3
		H80v-3h9.4c0-0.6-0.1-1-0.4-1.5c-0.3-0.4-0.6-0.8-1-1s-1-0.4-1.5-0.4c-0.6,0-1.1,0.1-1.6,0.4c-0.5,0.3-0.8,0.6-1.1,1.1
		c-0.3,0.4-0.4,0.9-0.4,1.5v3.1c0,0.7,0.1,1.3,0.4,1.8c0.3,0.5,0.6,0.9,1.1,1.2s1.1,0.4,1.7,0.4c0.5,0,0.9-0.1,1.3-0.2
		s0.7-0.3,1-0.6c0.3-0.2,0.5-0.6,0.6-0.9l4.8,0.1c-0.2,1.1-0.6,2-1.3,2.8c-0.7,0.8-1.6,1.4-2.6,1.8C89.1,30,87.8,30.2,86.4,30.2z"/>
	<path class="st2" d="M102.8,30.1c-1.2,0-2.3-0.3-3.3-0.9s-1.8-1.6-2.4-2.8c-0.6-1.2-0.9-2.8-0.9-4.7c0-1.9,0.3-3.5,0.9-4.8
		c0.6-1.2,1.4-2.2,2.4-2.8s2.1-0.9,3.2-0.9c0.9,0,1.6,0.1,2.2,0.4c0.6,0.3,1.1,0.7,1.5,1.1s0.7,0.9,0.9,1.4h0.1V8h5.2v21.8h-5.2
		v-2.7h-0.2c-0.2,0.5-0.5,1-0.9,1.4c-0.4,0.4-0.9,0.8-1.5,1.1C104.4,30,103.7,30.1,102.8,30.1z M104.6,26c0.6,0,1.2-0.2,1.6-0.5
		c0.4-0.4,0.8-0.9,1-1.5c0.2-0.7,0.4-1.4,0.4-2.3c0-0.9-0.1-1.7-0.4-2.3c-0.2-0.6-0.6-1.1-1-1.5c-0.5-0.3-1-0.5-1.6-0.5
		c-0.6,0-1.2,0.2-1.6,0.5c-0.4,0.4-0.8,0.9-1,1.5c-0.2,0.6-0.3,1.4-0.3,2.3c0,0.9,0.1,1.6,0.4,2.3s0.6,1.2,1,1.5
		C103.4,25.9,104,26,104.6,26z"/>
	<path class="st2" d="M134.6,8v21.8h-4.5l-8.7-12.6h-0.1v12.6h-5.3V8h4.5l8.6,12.6h0.2V8H134.6z"/>
	<path class="st2" d="M145.6,30.2c-1.7,0-3.2-0.3-4.4-1c-1.2-0.7-2.2-1.6-2.9-2.9c-0.7-1.3-1-2.8-1-4.5c0-1.7,0.3-3.2,1-4.4
		c0.7-1.3,1.6-2.3,2.8-3c1.2-0.7,2.6-1.1,4.3-1.1c1.2,0,2.2,0.2,3.2,0.5s1.8,0.9,2.5,1.6s1.2,1.6,1.6,2.6c0.4,1,0.6,2.2,0.6,3.6v1.3
		h-14.2v-3h9.4c0-0.6-0.1-1-0.4-1.5c-0.3-0.4-0.6-0.8-1-1c-0.4-0.2-1-0.4-1.5-0.4c-0.6,0-1.1,0.1-1.6,0.4c-0.5,0.3-0.8,0.6-1.1,1.1
		c-0.3,0.4-0.4,0.9-0.4,1.5v3.1c0,0.7,0.1,1.3,0.4,1.8c0.3,0.5,0.6,0.9,1.1,1.2c0.5,0.3,1.1,0.4,1.7,0.4c0.5,0,0.9-0.1,1.3-0.2
		c0.4-0.1,0.7-0.3,1-0.6c0.3-0.2,0.5-0.6,0.6-0.9l4.8,0.1c-0.2,1.1-0.6,2-1.3,2.8s-1.5,1.4-2.6,1.8C148.3,30,147,30.2,145.6,30.2z"
		/>
	<path class="st2" d="M160.2,13.5l2.7,5.4l2.8-5.4h5.3l-4.6,8.2l4.7,8.2h-5.2l-3-5.4l-2.9,5.4h-5.3l4.8-8.2l-4.5-8.2H160.2z"/>
	<path class="st2" d="M177.9,30.1c-1,0-2-0.2-2.8-0.5c-0.8-0.4-1.4-0.9-1.9-1.6c-0.5-0.7-0.7-1.6-0.7-2.7c0-0.9,0.2-1.7,0.5-2.3
		s0.8-1.1,1.3-1.5c0.6-0.4,1.2-0.7,1.9-0.9c0.7-0.2,1.5-0.3,2.3-0.4c0.9-0.1,1.7-0.2,2.2-0.3s1-0.2,1.2-0.4c0.3-0.2,0.4-0.4,0.4-0.8
		v-0.1c0-0.5-0.2-1-0.6-1.3c-0.4-0.3-0.9-0.4-1.5-0.4c-0.7,0-1.2,0.1-1.7,0.4c-0.4,0.3-0.7,0.7-0.8,1.2l-4.8-0.2
		c0.1-1,0.5-1.9,1.1-2.7c0.6-0.8,1.4-1.4,2.5-1.9c1-0.5,2.3-0.7,3.8-0.7c1,0,2,0.1,2.9,0.4s1.6,0.6,2.3,1.1c0.7,0.5,1.2,1,1.5,1.7
		s0.5,1.4,0.5,2.3v11.1h-4.9v-2.3h-0.1c-0.3,0.6-0.7,1-1.1,1.4c-0.5,0.4-1,0.7-1.6,0.9S178.6,30.1,177.9,30.1z M179.5,26.7
		c0.6,0,1.1-0.1,1.5-0.3c0.5-0.2,0.8-0.5,1.1-0.9c0.3-0.4,0.4-0.9,0.4-1.4v-1.6c-0.1,0.1-0.3,0.1-0.5,0.2c-0.2,0.1-0.4,0.1-0.7,0.2
		c-0.2,0.1-0.5,0.1-0.8,0.1c-0.3,0-0.5,0.1-0.8,0.1c-0.5,0.1-0.9,0.2-1.3,0.4c-0.3,0.2-0.6,0.4-0.8,0.6c-0.2,0.3-0.3,0.6-0.3,0.9
		c0,0.5,0.2,1,0.6,1.2C178.4,26.6,178.9,26.7,179.5,26.7z"/>
</g>
</svg>
