<!DOCTYPE svg PUBLIC "-//W3C//DTD SVG 1.1//EN" "http://www.w3.org/Graphics/SVG/1.1/DTD/svg11.dtd">
<!-- Uploaded to: SVG Repo, www.svgrepo.com, Transformed by: SVG Repo Mixer Tools -->
<svg fill="#0D7DFF" height="800px" width="800px" version="1.2" baseProfile="tiny" id="Layer_1" xmlns="http://www.w3.org/2000/svg" xmlns:xlink="http://www.w3.org/1999/xlink" viewBox="0 0 256 256" xml:space="preserve">
<g id="SVGRepo_bgCarrier" stroke-width="0"/>
<g id="SVGRepo_tracerCarrier" stroke-linecap="round" stroke-linejoin="round"/>
<g id="SVGRepo_iconCarrier"> <path id="XMLID_1_" d="M9.7,9.8C9.3,9,9.6,8,10.4,7.6l12.2-6.7c0.8-0.5,1.8-0.1,2.3,0.7l4.9,8.9c18.5-5.6,39,2.4,48.6,20L54.8,43.4 c3.9,7.2,1.3,16.1-5.9,20.1c-7.2,3.9-16.2,1.3-20.1-5.9L5.1,70.5c-9.6-17.6-5.2-39.2,9.5-51.7L9.7,9.8z M176.4,253.2H256v-82.4 h-79.6V253.2z M167.3,171.4H103c-11.2,0-20.3,9.1-20.3,20.3c0,11.2,9.1,20.3,20.3,20.3h64.3V171.4z M28.6,253.2h138.6v-32.9H36.9 c-4.6,0-8.2,3.7-8.2,8.2V253.2z M78.1,187.5c0-13.6-11-24.5-24.6-24.5c-13.6,0-24.6,11-24.6,24.5C29,201,40,212,53.5,212 C67.1,212,78.1,201,78.1,187.5 M212.3,118.7l-13.8-39.4c-2.7-7.4-7.8-13.2-22.3-13.2h-63.8C97.9,66.2,92.7,72,90,79.4l-13.8,39.4 c-1,2.5-1.6,8.3,4.1,12.1l32.5,21.4c4.7,3.1,11.1,1.8,14.3-2.9c3.1-4.7,1.8-11.1-2.9-14.3l-15.6-10.3l-10.2-6.7l7.3-20h10l-5.9,16.2 l19.6,12.9c4.4,2.9,7.4,7.3,8.5,12.5c1.1,5.2,0,10.4-2.9,14.8c-1.2,1.8-2.6,3.3-4.2,4.5h27.1c-1.6-1.3-3-2.8-4.2-4.5 c-2.9-4.4-3.9-9.7-2.9-14.8c1.1-5.2,4.1-9.6,8.5-12.5l19.6-12.9L172.9,98h10l7.3,20l-10.2,6.7l-15.6,10.3c-4.7,3.1-6.1,9.5-2.9,14.3 c3.1,4.7,9.5,6.1,14.3,2.9l32.5-21.4C213.9,127,213.3,121.3,212.3,118.7 M150.6,27.6c-1.5,3.3-4.9,5.7-8.8,5.7 c-3.9,0-7.3-2.3-8.8-5.7h-17.8c-0.3,1.6-0.5,3.2-0.5,4.8c0,15,12.2,27.2,27.2,27.2c15,0,27.2-12.2,27.2-27.2c0-1.7-0.2-3.3-0.5-4.8 H150.6z M132.4,21.2c1.1-4.2,4.9-7.4,9.4-7.4c4.5,0,8.4,3.1,9.4,7.4h15.4c-4.3-9.4-13.7-16-24.7-16c-11,0-20.4,6.5-24.7,16H132.4z"/> </g>
</svg>